<svg width="24" height="24" viewBox="0 0 24 24" fill="none" xmlns="http://www.w3.org/2000/svg">
<g id="arrow-circle-up_7482894 1" clip-path="url(#clip0_2002_3140)">
<path id="Vector" d="M12 0C5.383 0 0 5.383 0 12C0 18.617 5.383 24 12 24C18.617 24 24 18.617 24 12C24 5.383 18.617 0 12 0ZM12 23C5.935 23 1 18.065 1 12C1 5.935 5.935 1 12 1C18.065 1 23 5.935 23 12C23 18.065 18.065 23 12 23ZM13.154 6.478L17.957 11.281L17.25 11.988L12.5 7.238V18H11.5V7.238L6.75 11.988L6.043 11.281L10.846 6.478C11.482 5.841 12.518 5.841 13.154 6.478Z" fill="#838383"/>
</g>
<defs>
<clipPath id="clip0_2002_3140">
<rect width="24" height="24" fill="white"/>
</clipPath>
</defs>
</svg>
