<svg width="24" height="24" viewBox="0 0 24 24" fill="none" xmlns="http://www.w3.org/2000/svg">
<g clip-path="url(#clip0_2001_6639)">
<path d="M17 17C15.6212 17 14.5 18.1212 14.5 19.5C14.5 20.8788 15.6212 22 17 22C18.3788 22 19.5 20.8788 19.5 19.5C19.5 18.1212 18.3788 17 17 17ZM17 20.75C16.3109 20.75 15.75 20.1891 15.75 19.5C15.75 18.8109 16.3109 18.25 17 18.25C17.6891 18.25 18.25 18.8109 18.25 19.5C18.25 20.1891 17.6891 20.75 17 20.75Z" fill="#0C1620"/>
<path d="M9.5 17C8.12121 17 7 18.1212 7 19.5C7 20.8788 8.12122 22 9.5 22C10.8788 22 12 20.8788 12 19.5C12 18.1212 10.8788 17 9.5 17ZM9.5 20.75C8.81091 20.75 8.25 20.1891 8.25 19.5C8.25 18.8109 8.81091 18.25 9.5 18.25C10.1891 18.25 10.75 18.8109 10.75 19.5C10.75 20.1891 10.1891 20.75 9.5 20.75Z" fill="#0C1620"/>
<path d="M21.8859 6.01489C21.7687 5.84888 21.5782 5.75 21.375 5.75H8L8 7L20.4882 7L17.8093 14.5H7.53832L5.74329 2.53223C5.6969 2.22644 5.43445 2 5.125 2H2V3.25H4.58668L6.38173 15.2178C6.42811 15.5236 6.69056 15.75 7.00001 15.75H18.25C18.5143 15.75 18.7499 15.584 18.8384 15.335L21.9634 6.58496C22.0318 6.39392 22.0031 6.18091 21.8859 6.01489Z" fill="#0C1620"/>
</g>
<defs>
<clipPath id="clip0_2001_6639">
<rect width="20" height="20" fill="white" transform="translate(2 2)"/>
</clipPath>
</defs>
</svg>
