<svg width="24" height="24" viewBox="0 0 24 24" fill="none" xmlns="http://www.w3.org/2000/svg">
<g id="favorite">
<path id="Vector" d="M16.875 3C15.9657 2.99971 15.0656 3.18213 14.2282 3.53643C13.3907 3.89074 12.633 4.4097 12 5.0625C11.367 4.4097 10.6093 3.89074 9.77184 3.53643C8.9344 3.18213 8.03431 2.99971 7.125 3C3.9675 3 1.5 5.745 1.5 9.2475C1.5 11.7075 2.82 16.5 11.6625 20.9175C11.7672 20.9703 11.8828 20.9977 12 20.9977C12.1172 20.9977 12.2328 20.9703 12.3375 20.9175C21.18 16.5 22.5 11.7075 22.5 9.2475C22.5 5.745 20.0325 3 16.875 3ZM12 19.41C4.1775 15.3975 3 11.3325 3 9.2475C3 6.54 4.77 4.5 7.125 4.5C7.95115 4.50145 8.7656 4.69539 9.50375 5.06641C10.2419 5.43744 10.8834 5.97536 11.3775 6.6375C11.4461 6.73959 11.5388 6.82324 11.6473 6.88108C11.7559 6.93892 11.877 6.96918 12 6.96918C12.123 6.96918 12.2441 6.93892 12.3527 6.88108C12.4612 6.82324 12.5539 6.73959 12.6225 6.6375C13.1178 5.97665 13.7596 5.43967 14.4974 5.06878C15.2353 4.69789 16.0492 4.50319 16.875 4.5C19.23 4.5 21 6.54 21 9.2475C21 11.3325 19.8225 15.3975 12 19.41Z" fill="black"/>
</g>
</svg>
