<svg width="24" height="24" viewBox="-2 -2 24 24" fill="none" xmlns="http://www.w3.org/2000/svg">
<g id="house">
<path id="path7514" fill-rule="evenodd" clip-rule="evenodd" d="M1.69506 20C1.60411 20.0004 1.51397 19.9823 1.4298 19.9467C1.34564 19.9111 1.26909 19.8588 1.20454 19.7927C1.13999 19.7266 1.0887 19.648 1.05361 19.5614C1.01851 19.4748 1.00029 19.3819 1 19.2881V8.57243C0.999938 8.47323 1.0199 8.37511 1.05862 8.28432C1.09733 8.19353 1.15395 8.11205 1.22487 8.04508L9.53491 0.187641C9.66256 0.0669495 9.82941 0 10.0025 0C10.1757 0 10.3425 0.0669495 10.4702 0.187641L18.7802 8.04508C18.8502 8.11252 18.9059 8.1942 18.9437 8.28497C18.9815 8.37574 19.0007 8.47362 19 8.57243V19.2881C18.9994 19.4767 18.9265 19.6574 18.7972 19.7908C18.668 19.9242 18.4928 19.9994 18.31 20H12.77C12.5872 19.9994 12.4121 19.9242 12.2828 19.7908C12.1535 19.6574 12.0806 19.4767 12.0801 19.2881V14.2836C12.0801 13.5167 11.6862 12.8108 11.0426 12.4273C10.3989 12.0439 9.60617 12.0439 8.96251 12.4273C8.31886 12.8108 7.92504 13.5167 7.92504 14.2836V19.2881C7.92445 19.4767 7.85157 19.6574 7.7223 19.7908C7.59304 19.9242 7.41789 19.9994 7.23509 20H1.69506ZM2.38501 18.5709H6.54003V14.2836C6.54003 13.0087 7.20255 11.8308 8.27256 11.1933C9.34258 10.5559 10.6625 10.5559 11.7325 11.1933C12.8025 11.8308 13.4651 13.0087 13.4651 14.2836V18.5709H17.6201V8.88356L9.99999 1.68003L2.38501 8.88356V18.5709Z" fill="#303030"/>
</g>
</svg>
