<svg width="24" height="24" viewBox="-2 -2 24 24" fill="none" xmlns="http://www.w3.org/2000/svg">
<g id="phone_9840344 1" clip-path="url(#clip0_2001_15739)">
<path id="Vector" d="M5.52372 14.4763C8.49232 17.4449 11.8463 19.4392 14.7259 19.9479C14.9188 19.9823 15.1143 19.9997 15.3102 20C16.1391 20 16.9082 19.6788 17.5195 19.0675L19.5615 17.0256C19.8423 16.7442 20 16.3629 20 15.9653C20 15.5677 19.8423 15.1864 19.5615 14.905L15.8931 11.2366C15.6117 10.9558 15.2303 10.7981 14.8328 10.7981C14.4352 10.7981 14.0538 10.9558 13.7724 11.2366L11.9197 13.0894C10.1658 11.8185 8.1815 9.83422 6.91062 8.08028L8.76335 6.22755C9.0442 5.94613 9.20193 5.5648 9.20193 5.16722C9.20193 4.76964 9.0442 4.3883 8.76335 4.10689L5.09502 0.438555C4.81361 0.157722 4.43228 0 4.03471 0C3.63715 0 3.25582 0.157722 2.97441 0.438555L0.93247 2.48046C0.17946 3.23343 -0.133188 4.2256 0.0520772 5.27417C0.560654 8.15364 2.55513 11.5077 5.52372 14.4763ZM1.87133 3.41931L3.91327 1.37754C3.94567 1.34572 3.98928 1.32789 4.03469 1.32789C4.08011 1.32789 4.12372 1.34572 4.15612 1.37754L7.82445 5.04587C7.85607 5.0784 7.87376 5.12198 7.87376 5.16734C7.87376 5.21271 7.85607 5.25629 7.82445 5.28881L5.87429 7.23897C5.67897 7.4334 5.5591 7.69091 5.53608 7.96554C5.51306 8.24017 5.58838 8.51405 5.74861 8.73827C7.14057 10.6954 9.30454 12.8595 11.2617 14.2513C11.4859 14.4116 11.7598 14.487 12.0345 14.464C12.3091 14.441 12.5667 14.3211 12.7611 14.1257L14.7112 12.1756C14.7437 12.1438 14.7873 12.1259 14.8327 12.1259C14.8782 12.1259 14.9218 12.1438 14.9542 12.1756L18.6226 15.844C18.6544 15.8764 18.6722 15.92 18.6722 15.9654C18.6722 16.0108 18.6544 16.0544 18.6226 16.0869L16.5806 18.1288C16.1366 18.5727 15.5749 18.7497 14.9568 18.6405C12.3778 18.1848 9.2023 16.2771 6.46258 13.5374C3.72286 10.7977 1.81523 7.6222 1.3596 5.04318C1.25035 4.42489 1.42731 3.86333 1.87133 3.41931Z" fill="#303030"/>
</g>
<defs>
<clipPath id="clip0_2001_15739">
<rect width="20" height="20" fill="white"/>
</clipPath>
</defs>
</svg>
