<svg width="24" height="24" viewBox="0 0 24 24" fill="none" xmlns="http://www.w3.org/2000/svg">
<g id="zoom_5734026 1">
<g id="Layer 1">
<path id="Vector" d="M22 20.9721L15.7472 14.6565C17.0196 13.1256 17.6509 11.1658 17.51 9.18381C17.3692 7.20183 16.4669 5.34999 14.9906 4.01271C13.5143 2.67544 11.5774 1.95546 9.5819 2.00224C7.5864 2.04902 5.68565 2.85896 4.27423 4.26394C2.86281 5.66891 2.04915 7.56098 2.00215 9.54736C1.95516 11.5337 2.67844 13.4618 4.02186 14.9314C5.36527 16.4009 7.22561 17.2991 9.21668 17.4393C11.2077 17.5795 13.1766 16.9511 14.7145 15.6845L20.9673 22.0001L22 20.9721ZM3.41191 9.72948C3.41191 8.47872 3.7845 7.25606 4.48257 6.21609C5.18064 5.17613 6.17284 4.36557 7.33368 3.88693C8.49453 3.40829 9.7719 3.28305 11.0042 3.52706C12.2366 3.77107 13.3686 4.37337 14.2571 5.25779C15.1455 6.1422 15.7506 7.26902 15.9957 8.49574C16.2409 9.72246 16.115 10.994 15.6342 12.1495C15.1534 13.3051 14.3391 14.2927 13.2944 14.9876C12.2496 15.6825 11.0213 16.0534 9.76485 16.0534C8.08052 16.0515 6.46571 15.3847 5.27471 14.1991C4.0837 13.0136 3.41378 11.4061 3.41191 9.72948Z" fill="black"/>
</g>
</g>
</svg>
