<svg width="40" height="40" viewBox="0 0 40 40" fill="none" xmlns="http://www.w3.org/2000/svg">
<g clip-path="url(#clip0_749_69065)">
<path d="M29.9876 26.4824H26.6839C26.1293 26.4824 25.6089 26.2666 25.2173 25.875L23.295 23.9527C23.1376 23.7953 22.9191 23.7046 22.6969 23.7046C22.2302 23.7046 21.8506 24.0842 21.8506 24.5509V25.3444C21.8506 25.9722 21.3404 26.4824 20.7126 26.4824H17.683C15.5626 26.4824 12.1571 21.7194 9.67283 17.724C9.15801 16.8953 8.88672 15.9379 8.88672 14.9564V14.7203C8.88672 14.0583 9.42561 13.5194 10.0876 13.5194H13.0534C13.2275 13.5194 13.3876 13.6176 13.4663 13.7731C14.1173 15.0583 15.9525 18.5407 16.621 19.2101C16.7913 19.3796 16.9552 19.4796 17.0589 19.4592C17.1201 19.4537 17.1775 19.4148 17.2201 19.375V15.8592C17.2201 15.3694 17.0293 14.9101 16.683 14.5639L16.4293 14.3101C16.2969 14.1777 16.2571 13.9787 16.3293 13.8055C16.4006 13.6324 16.5701 13.5194 16.7571 13.5194H20.8367C21.3951 13.5194 21.8497 13.974 21.8497 14.5324V19.2685C22.1062 19.387 22.5654 19.5222 22.9284 19.1953C23.3163 18.8435 24.2839 16.9148 25.3913 14.2805C25.5858 13.8185 26.0367 13.5194 26.5404 13.5194H29.7886C30.5163 13.5194 31.1089 14.112 31.1089 14.8407C31.1089 15.5861 30.8525 16.3176 30.3867 16.9L27.4052 20.6268V21.199L30.7793 24.5731C31.1006 24.8944 31.196 25.3731 31.0219 25.7926C30.8478 26.2111 30.4423 26.4824 29.9876 26.4824ZM22.696 22.7787C23.1691 22.7787 23.6145 22.9629 23.9497 23.2981L25.8719 25.2203C26.0858 25.4342 26.3821 25.5564 26.6839 25.5564H29.9876C30.1006 25.5564 30.1478 25.4814 30.1663 25.437C30.1849 25.3926 30.2043 25.3055 30.1247 25.2259L26.6154 21.7166C26.5284 21.6305 26.4793 21.5129 26.4793 21.3898V20.4639C26.4793 20.3583 26.5154 20.2564 26.5802 20.174L29.6636 16.3203C29.9988 15.9027 30.183 15.3768 30.183 14.8407C30.183 14.6231 30.0062 14.4453 29.7876 14.4453H26.5395C26.4099 14.4453 26.2932 14.5213 26.2441 14.6389C25.3756 16.7027 24.2034 19.2879 23.5488 19.8805C22.6904 20.6574 21.5839 20.2426 21.1201 19.9157C20.9969 19.8305 20.9238 19.6889 20.9238 19.5379V14.5324C20.9238 14.4842 20.8849 14.4453 20.8367 14.4453H17.758C18.0108 14.8685 18.146 15.3537 18.146 15.8592V19.5379C18.146 19.6222 18.1238 19.7046 18.0802 19.7759C18.0478 19.8305 17.746 20.3083 17.1756 20.3777C16.7682 20.4296 16.358 20.2564 15.9663 19.8648C15.1617 19.0601 13.3117 15.5046 12.7691 14.4444H10.0876C9.93579 14.4453 9.81264 14.5694 9.81264 14.7203V14.9564C9.81264 15.7657 10.0367 16.5537 10.4599 17.2351C13.6506 22.3676 16.4182 25.5564 17.683 25.5564H20.7117C20.8284 25.5564 20.9238 25.4611 20.9238 25.3444V24.5509C20.9238 23.574 21.7191 22.7787 22.696 22.7787Z" fill="#0C1620"/>
</g>
<defs>
<clipPath id="clip0_749_69065">
<rect width="22.2222" height="22.2222" fill="#0C1620" transform="translate(8.89062 8.88892)"/>
</clipPath>
</defs>
</svg>
