<svg width="40" height="40" viewBox="0 0 40 40" fill="none" xmlns="http://www.w3.org/2000/svg">
<g clip-path="url(#clip0_749_69066)">
<path d="M23.4198 19.0014L18.5104 16.3152C18.2281 16.1608 17.8945 16.1665 17.6178 16.3305C17.3409 16.4946 17.1758 16.7845 17.1758 17.1063V22.4326C17.1758 22.7529 17.3399 23.0423 17.6149 23.2066C17.7585 23.2924 17.9177 23.3354 18.0772 23.3354C18.2234 23.3354 18.3699 23.2993 18.5046 23.2268L23.4142 20.5868C23.7057 20.43 23.8876 20.127 23.8889 19.7959C23.8901 19.4648 23.7104 19.1605 23.4198 19.0014ZM18.478 21.7626V17.7817L22.1472 19.7895L18.478 21.7626Z" fill="#0C1620"/>
<path d="M30.9493 15.5524L30.9483 15.5423C30.9295 15.3634 30.7421 13.7724 29.9687 12.9632C29.0747 12.0114 28.0612 11.8958 27.5737 11.8403C27.5334 11.8357 27.4964 11.8315 27.4634 11.8271L27.4246 11.823C24.4867 11.6094 20.05 11.5802 20.0056 11.5801L20.0017 11.5799L19.9978 11.5801C19.9534 11.5802 15.5166 11.6094 12.5524 11.823L12.5132 11.8271C12.4817 11.8313 12.4469 11.8352 12.4091 11.8396C11.9273 11.8952 10.9246 12.011 10.0281 12.9973C9.29142 13.7978 9.07848 15.3547 9.05661 15.5297L9.05406 15.5524C9.04745 15.6269 8.89062 17.3987 8.89062 19.1776V20.8405C8.89062 22.6193 9.04745 24.3912 9.05406 24.4658L9.05525 24.477C9.07407 24.6529 9.26124 26.2148 10.0311 27.0243C10.8717 27.9443 11.9346 28.066 12.5063 28.1314C12.5966 28.1418 12.6745 28.1506 12.7275 28.1599L12.7789 28.167C14.4751 28.3284 19.7935 28.408 20.019 28.4112L20.0258 28.4114L20.0325 28.4112C20.077 28.411 24.5135 28.3819 27.4513 28.1682L27.4902 28.1642C27.5273 28.1592 27.569 28.1548 27.6148 28.1501C28.0939 28.0992 29.0911 27.9936 29.9753 27.0208C30.712 26.22 30.9251 24.6631 30.9468 24.4883L30.9493 24.4656C30.9559 24.391 31.1129 22.6193 31.1129 20.8405V19.1776C31.1128 17.3987 30.9559 15.627 30.9493 15.5524ZM29.8105 20.8405C29.8105 22.4869 29.6667 24.1825 29.6532 24.3381C29.5979 24.7669 29.3733 25.7519 29.0143 26.142C28.461 26.7509 27.8925 26.8112 27.4774 26.8551C27.4273 26.8604 27.3808 26.8655 27.3388 26.8707C24.4973 27.0762 20.228 27.1077 20.0314 27.1089C19.8108 27.1057 14.5703 27.0255 12.9257 26.8728C12.8414 26.859 12.7504 26.8485 12.6544 26.8377C12.1677 26.7819 11.5014 26.7056 10.989 26.142L10.977 26.1291C10.6244 25.7618 10.4062 24.8406 10.3507 24.3432C10.3404 24.2255 10.1929 22.5099 10.1929 20.8405V19.1776C10.1929 17.533 10.3363 15.8393 10.3502 15.6804C10.4162 15.1754 10.645 14.25 10.989 13.876C11.5594 13.2487 12.1607 13.1792 12.5585 13.1332C12.5965 13.1288 12.6319 13.1248 12.6646 13.1205C15.5475 12.914 19.8474 12.8833 20.0017 12.8821C20.156 12.8832 24.4544 12.914 27.3116 13.1205C27.3467 13.1249 27.385 13.1293 27.4262 13.1341C27.8354 13.1807 28.4537 13.2512 29.0211 13.8565L29.0264 13.8621C29.379 14.2295 29.5972 15.1667 29.6527 15.6742C29.6625 15.7852 29.8105 17.5045 29.8105 19.1776V20.8405Z" fill="#0C1620"/>
</g>
<defs>
<clipPath id="clip0_749_69066">
<rect width="22.2222" height="22.2222" fill="#0C1620" transform="translate(8.89062 8.88892)"/>
</clipPath>
</defs>
</svg>
